<svg width="67" height="20" viewBox="0 0 67 20" fill="none" xmlns="http://www.w3.org/2000/svg">
<path fill-rule="evenodd" clip-rule="evenodd" d="M35.385 8.58215C35.385 7.80389 35.2903 7.16111 35.1013 6.65411C34.9122 6.1468 34.653 5.74384 34.3236 5.44508C33.9944 5.14616 33.6021 4.93776 33.147 4.81958C32.6914 4.70155 32.2044 4.6423 31.6863 4.6423C31.294 4.6423 30.9577 4.64953 30.6776 4.66305C30.3973 4.67704 30.1451 4.69102 29.9211 4.70485V15.5241C30.1451 15.538 30.3973 15.552 30.6776 15.5655C30.9577 15.5795 31.294 15.5863 31.6863 15.5863C32.2044 15.5863 32.6914 15.5275 33.147 15.4092C33.6021 15.2911 33.9944 15.0828 34.3236 14.784C34.653 14.4854 34.9122 14.0821 35.1013 13.5751C35.2903 13.0678 35.385 12.4247 35.385 11.6466V8.58215ZM38.3062 11.6333C38.3062 13.7001 37.7342 15.278 36.5904 16.3666C35.4462 17.4556 33.8146 18 31.6954 18C31.316 18 30.9193 17.9927 30.5053 17.9791C30.0912 17.9651 29.6913 17.9443 29.3054 17.9167C28.9193 17.8887 28.5687 17.8612 28.2526 17.8334C27.9369 17.8057 27.7016 17.7782 27.5473 17.7502C27.3648 17.7226 27.2283 17.6603 27.137 17.5631C27.0456 17.4659 27 17.3133 27 17.1053V3.10262C27 2.8947 27.0456 2.7421 27.137 2.64497C27.2283 2.54801 27.3648 2.48561 27.5473 2.45764C27.7016 2.43014 27.9369 2.40248 28.2526 2.3745C28.5687 2.34684 28.9193 2.31918 29.3054 2.29136C29.6913 2.2637 30.0912 2.2428 30.5053 2.22881C30.9193 2.21514 31.316 2.20807 31.6954 2.20807C33.8146 2.20807 35.4462 2.75263 36.5904 3.84127C37.7342 4.93039 38.3062 6.50812 38.3062 8.57478V11.6333Z" fill="white"/>
<path fill-rule="evenodd" clip-rule="evenodd" d="M47.4373 10.8842C47.4373 10.066 47.2329 9.43501 46.8247 8.99087C46.4163 8.54721 45.8813 8.32499 45.22 8.32499C44.5584 8.32499 44.0166 8.54344 43.5943 8.9805C43.1722 9.4174 42.9611 10.052 42.9611 10.8842V10.9675H47.4373V10.8842ZM50.2114 12.4031C50.2114 12.7498 50.0711 12.9233 49.7911 12.9233H42.9401V12.9856C42.9401 13.2908 42.9747 13.5994 43.045 13.9115C43.115 14.2237 43.2449 14.5081 43.4338 14.7646C43.623 15.0214 43.8822 15.2293 44.2115 15.3887C44.5404 15.5484 44.9575 15.628 45.4619 15.628C46.2322 15.628 46.9572 15.604 47.6371 15.5553C48.3164 15.5067 48.8802 15.4615 49.3286 15.42H49.3918C49.5039 15.42 49.5947 15.4445 49.6649 15.4927C49.735 15.5416 49.7701 15.6213 49.7701 15.7321V17.1054C49.7701 17.2718 49.7455 17.3966 49.6964 17.4799C49.6472 17.563 49.5249 17.6186 49.3286 17.6461C48.9926 17.7158 48.6773 17.7709 48.383 17.8126C48.0889 17.8544 47.7911 17.8886 47.4898 17.9166C47.1883 17.9444 46.8594 17.9652 46.5019 17.9792C46.1446 17.9927 45.7278 17.9999 45.2517 17.9999C44.7191 17.9999 44.1556 17.9201 43.5609 17.7607C42.966 17.6013 42.4183 17.3238 41.9178 16.9284C41.4173 16.533 41.0038 15.9993 40.6769 15.3263C40.3502 14.6537 40.1869 13.8042 40.1869 12.7776V11.2379C40.1869 10.4336 40.2985 9.70548 40.5225 9.05342C40.7463 8.40152 41.0712 7.84659 41.4978 7.38878C41.924 6.93113 42.4517 6.57736 43.0809 6.32764C43.71 6.07791 44.4229 5.95312 45.2201 5.95312C46.0308 5.95312 46.7474 6.08168 47.3696 6.33801C47.9916 6.59497 48.5122 6.95895 48.932 7.43043C49.3515 7.90222 49.6696 8.4603 49.8863 9.10528C50.1031 9.75027 50.2114 10.4614 50.2114 11.2379V12.4031Z" fill="white"/>
<path fill-rule="evenodd" clip-rule="evenodd" d="M59.2375 10.8842C59.2375 10.066 59.033 9.43501 58.6249 8.99087C58.2165 8.54721 57.6817 8.32499 57.0202 8.32499C56.3587 8.32499 55.8169 8.54344 55.3947 8.9805C54.9724 9.4174 54.7613 10.052 54.7613 10.8842V10.9675H59.2375V10.8842ZM62.0114 12.4031C62.0114 12.7498 61.8711 12.9233 61.5912 12.9233H54.7401V12.9856C54.7401 13.2908 54.7747 13.5994 54.845 13.9115C54.915 14.2237 55.0449 14.5081 55.2339 14.7646C55.423 15.0214 55.6822 15.2293 56.0116 15.3887C56.3404 15.5484 56.7575 15.628 57.2619 15.628C58.0322 15.628 58.7572 15.604 59.4371 15.5553C60.1163 15.5067 60.6802 15.4615 61.1286 15.42H61.1918C61.3039 15.42 61.3947 15.4445 61.4648 15.4927C61.535 15.5416 61.5701 15.6213 61.5701 15.7321V17.1054C61.5701 17.2718 61.5455 17.3966 61.4964 17.4799C61.4472 17.563 61.3248 17.6186 61.1286 17.6461C60.7926 17.7158 60.4773 17.7709 60.183 17.8126C59.8889 17.8544 59.5911 17.8886 59.2898 17.9166C58.9883 17.9444 58.6594 17.9652 58.3021 17.9792C57.9446 17.9927 57.5277 17.9999 57.0517 17.9999C56.5193 17.9999 55.9556 17.9201 55.3609 17.7607C54.766 17.6013 54.2183 17.3238 53.7178 16.9284C53.2173 16.533 52.8038 15.9993 52.4769 15.3263C52.1502 14.6537 51.9869 13.8042 51.9869 12.7776V11.2379C51.9869 10.4336 52.0985 9.70548 52.3225 9.05342C52.5463 8.40152 52.8712 7.84659 53.2978 7.38878C53.724 6.93113 54.2516 6.57736 54.881 6.32764C55.51 6.07791 56.2229 5.95312 57.0201 5.95312C57.8309 5.95312 58.5473 6.08168 59.1696 6.33801C59.7916 6.59497 60.3122 6.95895 60.7319 7.43043C61.1515 7.90222 61.4696 8.4603 61.6865 9.10528C61.9031 9.75027 62.0114 10.4614 62.0114 11.2379V12.4031Z" fill="white"/>
<path fill-rule="evenodd" clip-rule="evenodd" d="M66.6448 17.6982C66.5677 17.7886 66.4732 17.8334 66.3612 17.8334H64.4067C64.2943 17.8334 64.1967 17.7886 64.1126 17.6982C64.0285 17.6082 63.9864 17.5078 63.9864 17.3965V2.41616C63.9864 2.30536 64.0285 2.20808 64.1126 2.12494C64.1967 2.04149 64.2943 2 64.4067 2H66.3612C66.4732 2 66.5677 2.04149 66.6448 2.12494C66.7218 2.20808 66.7606 2.30536 66.7606 2.41616V17.3965C66.7606 17.5078 66.7218 17.6082 66.6448 17.6982" fill="white"/>
<path fill-rule="evenodd" clip-rule="evenodd" d="M7.37232 6.44703C7.04472 6.76817 6.84135 7.21368 6.84135 7.70631C6.84135 8.68527 7.64315 9.47885 8.63207 9.47885C9.62098 9.47885 10.4228 8.68527 10.4228 7.70631C10.4228 7.21725 10.2226 6.77449 9.89917 6.4539V0H0V20H2.52685V2.50139H7.37232V6.44703Z" fill="#00E3DF"/>
<path fill-rule="evenodd" clip-rule="evenodd" d="M16.0403 2.92829C14.9674 1.86799 13.6572 1.05833 12.2351 0.564453V3.27156C12.9782 3.63406 13.6641 4.11461 14.2535 4.69712C15.6829 6.11429 16.4712 7.99662 16.4732 10.0028C16.4711 14.136 13.0725 17.4986 8.89705 17.4986H7.38758V13.529C7.67284 13.2149 7.84789 12.801 7.84789 12.3454C7.84789 11.3665 7.04623 10.5729 6.05731 10.5729C5.06826 10.5729 4.2666 11.3665 4.2666 12.3454C4.2666 12.8684 4.4969 13.337 4.86073 13.6615V19.9999H8.89705C14.4651 19.9999 18.9974 15.5159 19 9.99534C18.9974 7.32768 17.9467 4.81845 16.0403 2.92829" fill="#00E3DF"/>
</svg>
